<svg xmlns="http://www.w3.org/2000/svg" viewBox="0 0 64 64" fill="none" role="img" aria-label="WordPics">
  <defs>
    <linearGradient id="fv-bg" x1="0" y1="0" x2="64" y2="64" gradientUnits="userSpaceOnUse">
      <stop offset="0" stop-color="#ffb07a"/>
      <stop offset="0.55" stop-color="#ff7a59"/>
      <stop offset="1" stop-color="#e0484a"/>
    </linearGradient>
  </defs>

  <rect width="64" height="64" rx="14" fill="url(#fv-bg)"/>

  <path d="M5 51 L32 54 L59 51 L57 55.5 L32 58 L7 55.5 Z" fill="#8a2412"/>

  <path d="M5 24 Q 18.5 19 32 26 L 32 52 Q 18.5 47 5 51 Z" fill="#ffffff"/>
  <path d="M59 24 Q 45.5 19 32 26 L 32 52 Q 45.5 47 59 51 Z" fill="#ffffff"/>
  <path d="M32 26 L32 52" stroke="#8a2412" stroke-width="1.6" stroke-linecap="round"/>

  <path d="M32 22
           C 30.4 19 26.8 18.6 25.4 20.8
           C 24 23 25.8 25.4 32 28.8
           C 38.2 25.4 40 23 38.6 20.8
           C 37.2 18.6 33.6 19 32 22 Z"
        fill="#d8363a"/>
</svg>
